<svg width="10" height="14" viewBox="0 0 10 14" fill="none" xmlns="http://www.w3.org/2000/svg">
<path d="M2.6849 14C3.9729 14 5.01823 12.9547 5.01823 11.6667V9.33333H2.6849C1.3969 9.33333 0.351562 10.3787 0.351562 11.6667C0.351562 12.9547 1.3969 14 2.6849 14Z" fill="#0ACF83"/>
<path d="M0.351562 7.00001C0.351562 5.71201 1.3969 4.66667 2.6849 4.66667H5.01823V9.33334H2.6849C1.3969 9.33334 0.351562 8.28801 0.351562 7.00001Z" fill="#A259FF"/>
<path d="M0.351562 2.33333C0.351562 1.04533 1.3969 0 2.6849 0H5.01823V4.66667H2.6849C1.3969 4.66667 0.351562 3.62133 0.351562 2.33333Z" fill="#F24E1E"/>
<path d="M5.01831 0H7.35164C8.63964 0 9.68498 1.04533 9.68498 2.33333C9.68498 3.62133 8.63964 4.66667 7.35164 4.66667H5.01831V0Z" fill="#FF7262"/>
<path d="M9.68498 7.00001C9.68498 8.28801 8.63964 9.33334 7.35164 9.33334C6.06364 9.33334 5.01831 8.28801 5.01831 7.00001C5.01831 5.71201 6.06364 4.66667 7.35164 4.66667C8.63964 4.66667 9.68498 5.71201 9.68498 7.00001Z" fill="#1ABCFE"/>
</svg>
